<svg width="121" height="121" viewBox="0 0 121 121" fill="none" xmlns="http://www.w3.org/2000/svg">
<path d="M120.735 60.2812C120.735 93.4183 93.8722 120.281 60.7351 120.281C27.598 120.281 0.735107 93.4183 0.735107 60.2812C0.735107 27.1442 27.598 0.28125 60.7351 0.28125C93.8722 0.28125 120.735 27.1442 120.735 60.2812ZM15.7351 60.2812C15.7351 85.1341 35.8823 105.281 60.7351 105.281C85.5879 105.281 105.735 85.1341 105.735 60.2812C105.735 35.4284 85.5879 15.2812 60.7351 15.2812C35.8823 15.2812 15.7351 35.4284 15.7351 60.2812Z" fill="#F4EBFF"/>
<path d="M60.7351 0.28125C73.4059 0.28125 85.7514 4.29255 96.0022 11.7402C106.253 19.1879 113.883 29.6896 117.799 41.7402L103.533 46.3755C100.596 37.3375 94.8736 29.4612 87.1854 23.8755C79.4973 18.2897 70.2382 15.2812 60.7351 15.2812V0.28125Z" fill="#7F56D9"/>
<path d="M117.799 41.7402C121.218 52.264 121.66 63.5284 119.077 74.288C116.494 85.0476 110.986 94.8833 103.162 102.708C95.3372 110.532 85.5014 116.04 74.7419 118.623C63.9823 121.207 52.7179 120.764 42.1941 117.345L46.8294 103.079C54.7222 105.643 63.1705 105.975 71.2402 104.038C79.3099 102.101 86.6866 97.9693 92.5549 92.1011C98.4232 86.2328 102.554 78.856 104.492 70.7863C106.429 62.7166 106.097 54.2683 103.533 46.3755L117.799 41.7402Z" fill="#9E77ED"/>
<path d="M42.1941 117.345C30.1435 113.429 19.6418 105.799 12.1941 95.5484L24.3293 86.7316C29.9151 94.4197 37.7914 100.142 46.8293 103.079L42.1941 117.345Z" fill="#B692F6"/>
<path d="M12.1941 95.5484C3.224 83.2021 -0.704463 67.9017 1.20823 52.7612L16.0899 54.6412C14.6554 65.9966 17.6018 77.4719 24.3293 86.7316L12.1941 95.5484Z" fill="#D6BBFB"/>
</svg>
