<svg width="34" height="34" viewBox="0 0 34 34" fill="none" xmlns="http://www.w3.org/2000/svg">
<path opacity="0.4" fill-rule="evenodd" clip-rule="evenodd" d="M8.75762 14.6388C7.37246 14.6388 7.08337 14.9106 7.08337 16.2129V18.574C7.08337 19.8763 7.37246 20.1481 8.75762 20.1481H12.1061V29.5925C12.1061 30.8948 12.3952 31.1666 13.7803 31.1666H17.1288C18.514 31.1666 18.8031 30.8948 18.8031 29.5925V20.1481H22.5629C23.6134 20.1481 23.8841 19.9561 24.1727 19.0064L24.8903 16.6453C25.3846 15.0185 25.08 14.6388 23.2804 14.6388H18.8031V10.7036C18.8031 9.83429 19.5527 9.12955 20.4773 9.12955H25.2425C26.6276 9.12955 26.9167 8.85776 26.9167 7.55547V4.40733C26.9167 3.10504 26.6276 2.83325 25.2425 2.83325H20.4773C15.854 2.83325 12.1061 6.35694 12.1061 10.7036V14.6388H8.75762Z" stroke="#141B34" stroke-width="1.5" stroke-linejoin="round"/>
<path d="M13.7803 31.1666C12.3952 31.1666 12.1061 30.8948 12.1061 29.5925V20.1481H8.75762C7.37246 20.1481 7.08337 19.8763 7.08337 18.574V16.2129C7.08337 14.9106 7.37246 14.6388 8.75762 14.6388H12.1061V10.7036C12.1061 6.35694 15.854 2.83325 20.4773 2.83325H25.2425C26.5699 2.83325 26.8907 3.08287 26.9151 4.24992" stroke="#141B34" stroke-width="1.5" stroke-linecap="round" stroke-linejoin="round"/>
</svg>
