<svg width="21" height="21" viewBox="0 0 21 21" fill="none" xmlns="http://www.w3.org/2000/svg">
<path d="M10.1106 11.7164C10.5708 11.7164 10.9439 11.3433 10.9439 10.8831C10.9439 10.4229 10.5708 10.0498 10.1106 10.0498C9.65032 10.0498 9.27722 10.4229 9.27722 10.8831C9.27722 11.3433 9.65032 11.7164 10.1106 11.7164Z" stroke="#98A2B3" stroke-width="1.66667" stroke-linecap="round" stroke-linejoin="round"/>
<path d="M10.1106 5.8831C10.5708 5.8831 10.9439 5.51 10.9439 5.04976C10.9439 4.58953 10.5708 4.21643 10.1106 4.21643C9.65032 4.21643 9.27722 4.58953 9.27722 5.04976C9.27722 5.51 9.65032 5.8831 10.1106 5.8831Z" stroke="#98A2B3" stroke-width="1.66667" stroke-linecap="round" stroke-linejoin="round"/>
<path d="M10.1106 17.5498C10.5708 17.5498 10.9439 17.1767 10.9439 16.7164C10.9439 16.2562 10.5708 15.8831 10.1106 15.8831C9.65032 15.8831 9.27722 16.2562 9.27722 16.7164C9.27722 17.1767 9.65032 17.5498 10.1106 17.5498Z" stroke="#98A2B3" stroke-width="1.66667" stroke-linecap="round" stroke-linejoin="round"/>
</svg>
