<svg width="21" height="21" viewBox="0 0 21 21" fill="none" xmlns="http://www.w3.org/2000/svg">
<path d="M10.4035 11.1146C10.8638 11.1146 11.2369 10.7415 11.2369 10.2813C11.2369 9.82105 10.8638 9.44796 10.4035 9.44796C9.94329 9.44796 9.57019 9.82105 9.57019 10.2813C9.57019 10.7415 9.94329 11.1146 10.4035 11.1146Z" stroke="#98A2B3" stroke-width="1.66667" stroke-linecap="round" stroke-linejoin="round"/>
<path d="M10.4035 5.28129C10.8638 5.28129 11.2369 4.90819 11.2369 4.44796C11.2369 3.98772 10.8638 3.61462 10.4035 3.61462C9.94329 3.61462 9.57019 3.98772 9.57019 4.44796C9.57019 4.90819 9.94329 5.28129 10.4035 5.28129Z" stroke="#98A2B3" stroke-width="1.66667" stroke-linecap="round" stroke-linejoin="round"/>
<path d="M10.4035 16.948C10.8638 16.948 11.2369 16.5749 11.2369 16.1146C11.2369 15.6544 10.8638 15.2813 10.4035 15.2813C9.94329 15.2813 9.57019 15.6544 9.57019 16.1146C9.57019 16.5749 9.94329 16.948 10.4035 16.948Z" stroke="#98A2B3" stroke-width="1.66667" stroke-linecap="round" stroke-linejoin="round"/>
</svg>
