<svg width="34" height="34" viewBox="0 0 34 34" fill="none" xmlns="http://www.w3.org/2000/svg">
<path d="M11.3334 22.6667L23.6869 21.6372C27.5522 21.3151 28.4199 20.4709 28.8483 16.6159L29.75 8.5" stroke="#141B34" stroke-width="1.5" stroke-linecap="round"/>
<path d="M8.5 8.5L10.625 8.5M31.1667 8.5H26.9167" stroke="#141B34" stroke-width="1.5" stroke-linecap="round"/>
<path d="M14.875 9.91667C14.875 9.91667 16.2917 9.91667 17.7083 12.75C17.7083 12.75 22.2083 5.66667 26.2083 4.25" stroke="#141B34" stroke-width="1.5" stroke-linecap="round" stroke-linejoin="round"/>
<circle cx="8.50008" cy="28.3333" r="2.83333" stroke="#141B34" stroke-width="1.5"/>
<circle cx="24.0833" cy="28.3333" r="2.83333" stroke="#141B34" stroke-width="1.5"/>
<path d="M11.3333 28.3334L21.25 28.3334" stroke="#141B34" stroke-width="1.5" stroke-linecap="round"/>
<path d="M2.83337 2.83337H4.20188C5.54018 2.83337 6.70674 3.71822 7.03132 4.97952L11.2463 21.3584C11.4593 22.1861 11.277 23.063 10.75 23.7456L9.39556 25.5" stroke="#141B34" stroke-width="1.5" stroke-linecap="round"/>
</svg>
