<svg width="34" height="34" viewBox="0 0 34 34" fill="none" xmlns="http://www.w3.org/2000/svg">
<path d="M2.83337 15.5834C6.13662 12.1236 10.828 11.9607 14.1667 15.5834M12.0348 6.37504C12.0348 8.33105 10.4468 9.91671 8.48804 9.91671C6.52925 9.91671 4.94133 8.33105 4.94133 6.37504C4.94133 4.41903 6.52925 2.83337 8.48804 2.83337C10.4468 2.83337 12.0348 4.41903 12.0348 6.37504Z" stroke="#141B34" stroke-width="1.5" stroke-linecap="round"/>
<path d="M19.8334 31.1667C23.1366 27.707 27.828 27.5441 31.1667 31.1667M29.0348 21.9584C29.0348 23.9144 27.4468 25.5001 25.488 25.5001C23.5292 25.5001 21.9413 23.9144 21.9413 21.9584C21.9413 20.0024 23.5292 18.4167 25.488 18.4167C27.4468 18.4167 29.0348 20.0024 29.0348 21.9584Z" stroke="#141B34" stroke-width="1.5" stroke-linecap="round"/>
<path opacity="0.4" d="M4.25 19.8333C4.25 25.3158 8.68417 29.75 14.1667 29.75L12.75 26.9167" stroke="#141B34" stroke-width="1.5" stroke-linecap="round" stroke-linejoin="round"/>
<path opacity="0.4" d="M21.25 4.25H29.75M21.25 8.5H29.75M21.25 12.75H26.2083" stroke="#141B34" stroke-width="1.5" stroke-linecap="round" stroke-linejoin="round"/>
</svg>
